<mxfile host="app.diagrams.net" modified="2022-01-24T10:10:44.963Z" agent="5.0 (Windows NT 10.0; Win64; x64) AppleWebKit/537.36 (KHTML, like Gecko) Chrome/97.0.4692.99 Safari/537.36 Edg/97.0.1072.69" etag="K3sfs_KXpX0NtKWnq4Pz" version="16.4.3" type="github">
  <diagram id="k8vC2NiPjCdb4JMD_x9w" name="Page-1">
    <mxGraphModel dx="1422" dy="762" grid="1" gridSize="10" guides="1" tooltips="1" connect="1" arrows="1" fold="1" page="1" pageScale="1" pageWidth="827" pageHeight="1169" math="0" shadow="0">
      <root>
        <mxCell id="0" />
        <mxCell id="1" parent="0" />
        <mxCell id="1vQmw3Du45QE4xVhplEK-1" value="安全隐患排查体验系统" style="swimlane;horizontal=0;rounded=1;fillColor=#A8DADC;strokeColor=#457B9D;fontColor=#1D3557;fontSize=17;verticalAlign=middle;" vertex="1" parent="1">
          <mxGeometry x="30" y="26" width="1240" height="644" as="geometry" />
        </mxCell>
        <mxCell id="1vQmw3Du45QE4xVhplEK-2" value="C#应用程序" style="swimlane;startSize=23;rounded=1;fillColor=#A8DADC;strokeColor=#457B9D;fontColor=#1D3557;" vertex="1" parent="1vQmw3Du45QE4xVhplEK-1">
          <mxGeometry x="316" y="20" width="574" height="440" as="geometry">
            <mxRectangle x="318.5" y="20" width="100" height="23" as="alternateBounds" />
          </mxGeometry>
        </mxCell>
        <mxCell id="1vQmw3Du45QE4xVhplEK-3" value="模式选择" style="whiteSpace=wrap;html=1;rounded=1;fillColor=#A8DADC;strokeColor=#457B9D;fontColor=#1D3557;" vertex="1" parent="1vQmw3Du45QE4xVhplEK-2">
          <mxGeometry x="120" y="144" width="160" height="30" as="geometry" />
        </mxCell>
        <mxCell id="1vQmw3Du45QE4xVhplEK-4" value="身份认证" style="whiteSpace=wrap;html=1;rounded=1;fillColor=#A8DADC;strokeColor=#457B9D;fontColor=#1D3557;" vertex="1" parent="1vQmw3Du45QE4xVhplEK-2">
          <mxGeometry x="120" y="88" width="160" height="30" as="geometry" />
        </mxCell>
        <mxCell id="1vQmw3Du45QE4xVhplEK-5" value="知识科普" style="whiteSpace=wrap;html=1;rounded=1;fillColor=#A8DADC;strokeColor=#457B9D;fontColor=#1D3557;" vertex="1" parent="1vQmw3Du45QE4xVhplEK-2">
          <mxGeometry x="25.5" y="199" width="80" height="30" as="geometry" />
        </mxCell>
        <mxCell id="1vQmw3Du45QE4xVhplEK-6" value="引导教学" style="whiteSpace=wrap;html=1;rounded=1;fillColor=#A8DADC;strokeColor=#457B9D;fontColor=#1D3557;" vertex="1" parent="1vQmw3Du45QE4xVhplEK-2">
          <mxGeometry x="120" y="199" width="160" height="30" as="geometry" />
        </mxCell>
        <mxCell id="1vQmw3Du45QE4xVhplEK-7" value="自主体验" style="whiteSpace=wrap;html=1;rounded=1;fillColor=#A8DADC;strokeColor=#457B9D;fontColor=#1D3557;" vertex="1" parent="1vQmw3Du45QE4xVhplEK-2">
          <mxGeometry x="299.5" y="199" width="106" height="30" as="geometry" />
        </mxCell>
        <mxCell id="1vQmw3Du45QE4xVhplEK-8" value="" style="endArrow=classic;html=1;rounded=1;entryX=0.5;entryY=0;entryDx=0;entryDy=0;exitX=0.5;exitY=1;exitDx=0;exitDy=0;labelBackgroundColor=#F1FAEE;strokeColor=#457B9D;fontColor=#1D3557;" edge="1" parent="1vQmw3Du45QE4xVhplEK-2" source="1vQmw3Du45QE4xVhplEK-3">
          <mxGeometry width="50" height="50" relative="1" as="geometry">
            <mxPoint x="300" y="299" as="sourcePoint" />
            <mxPoint x="60" y="199" as="targetPoint" />
          </mxGeometry>
        </mxCell>
        <mxCell id="1vQmw3Du45QE4xVhplEK-9" value="" style="endArrow=classic;html=1;rounded=1;exitX=0.5;exitY=1;exitDx=0;exitDy=0;entryX=0.5;entryY=0;entryDx=0;entryDy=0;labelBackgroundColor=#F1FAEE;strokeColor=#457B9D;fontColor=#1D3557;" edge="1" parent="1vQmw3Du45QE4xVhplEK-2" source="1vQmw3Du45QE4xVhplEK-3">
          <mxGeometry width="50" height="50" relative="1" as="geometry">
            <mxPoint x="300" y="289" as="sourcePoint" />
            <mxPoint x="352.5" y="199" as="targetPoint" />
          </mxGeometry>
        </mxCell>
        <mxCell id="1vQmw3Du45QE4xVhplEK-10" value="微光互联HD100" style="rounded=1;whiteSpace=wrap;html=1;fillColor=#A8DADC;strokeColor=#457B9D;fontColor=#1D3557;" vertex="1" parent="1vQmw3Du45QE4xVhplEK-2">
          <mxGeometry x="317.5" y="88" width="110" height="30" as="geometry" />
        </mxCell>
        <mxCell id="1vQmw3Du45QE4xVhplEK-11" value="" style="endArrow=classic;html=1;rounded=1;fontSize=13;exitX=1;exitY=0.5;exitDx=0;exitDy=0;entryX=0;entryY=0.5;entryDx=0;entryDy=0;labelBackgroundColor=#F1FAEE;strokeColor=#457B9D;fontColor=#1D3557;" edge="1" parent="1vQmw3Du45QE4xVhplEK-2" target="1vQmw3Du45QE4xVhplEK-10">
          <mxGeometry width="50" height="50" relative="1" as="geometry">
            <mxPoint x="280" y="103" as="sourcePoint" />
            <mxPoint x="299.5" y="103" as="targetPoint" />
          </mxGeometry>
        </mxCell>
        <mxCell id="1vQmw3Du45QE4xVhplEK-12" value="" style="endArrow=classic;html=1;rounded=1;fontSize=10;strokeWidth=1;entryX=0.5;entryY=0;entryDx=0;entryDy=0;exitX=0.5;exitY=1;exitDx=0;exitDy=0;labelBackgroundColor=#F1FAEE;strokeColor=#457B9D;fontColor=#1D3557;" edge="1" parent="1vQmw3Du45QE4xVhplEK-2" source="1vQmw3Du45QE4xVhplEK-3" target="1vQmw3Du45QE4xVhplEK-6">
          <mxGeometry width="50" height="50" relative="1" as="geometry">
            <mxPoint x="200.5" y="179" as="sourcePoint" />
            <mxPoint x="89.5" y="279" as="targetPoint" />
          </mxGeometry>
        </mxCell>
        <mxCell id="1vQmw3Du45QE4xVhplEK-13" value="" style="endArrow=classic;html=1;rounded=1;sketch=0;fontColor=#1D3557;strokeColor=#457B9D;strokeWidth=1;fillColor=#A8DADC;curved=1;jumpStyle=none;exitX=0.5;exitY=1;exitDx=0;exitDy=0;entryX=0.5;entryY=0;entryDx=0;entryDy=0;labelBackgroundColor=#F1FAEE;" edge="1" parent="1vQmw3Du45QE4xVhplEK-2" target="1vQmw3Du45QE4xVhplEK-3">
          <mxGeometry width="50" height="50" relative="1" as="geometry">
            <mxPoint x="200" y="118" as="sourcePoint" />
            <mxPoint x="251.5" y="108" as="targetPoint" />
          </mxGeometry>
        </mxCell>
        <mxCell id="1vQmw3Du45QE4xVhplEK-14" value="系统选择" style="whiteSpace=wrap;html=1;rounded=1;fillColor=#A8DADC;strokeColor=#457B9D;fontColor=#1D3557;" vertex="1" parent="1vQmw3Du45QE4xVhplEK-2">
          <mxGeometry x="120" y="31" width="160" height="30" as="geometry" />
        </mxCell>
        <mxCell id="1vQmw3Du45QE4xVhplEK-15" value="" style="endArrow=classic;html=1;rounded=1;sketch=0;fontColor=#1D3557;strokeColor=#457B9D;fillColor=#A8DADC;curved=0;exitX=0.5;exitY=1;exitDx=0;exitDy=0;entryX=0.5;entryY=0;entryDx=0;entryDy=0;" edge="1" parent="1vQmw3Du45QE4xVhplEK-2" source="1vQmw3Du45QE4xVhplEK-14" target="1vQmw3Du45QE4xVhplEK-4">
          <mxGeometry width="50" height="50" relative="1" as="geometry">
            <mxPoint x="351.5" y="237" as="sourcePoint" />
            <mxPoint x="401.5" y="187" as="targetPoint" />
          </mxGeometry>
        </mxCell>
        <mxCell id="1vQmw3Du45QE4xVhplEK-16" value="" style="endArrow=classic;html=1;rounded=1;sketch=0;fontColor=#1D3557;strokeColor=#457B9D;fillColor=#A8DADC;curved=0;exitX=0.5;exitY=1;exitDx=0;exitDy=0;entryX=0.25;entryY=0;entryDx=0;entryDy=0;" edge="1" parent="1vQmw3Du45QE4xVhplEK-2" source="1vQmw3Du45QE4xVhplEK-5" target="1vQmw3Du45QE4xVhplEK-18">
          <mxGeometry width="50" height="50" relative="1" as="geometry">
            <mxPoint x="354" y="477" as="sourcePoint" />
            <mxPoint x="66" y="274" as="targetPoint" />
          </mxGeometry>
        </mxCell>
        <mxCell id="1vQmw3Du45QE4xVhplEK-17" value="显示" style="edgeLabel;html=1;align=center;verticalAlign=middle;resizable=0;points=[];fontColor=#1D3557;" vertex="1" connectable="0" parent="1vQmw3Du45QE4xVhplEK-16">
          <mxGeometry x="-0.0344" relative="1" as="geometry">
            <mxPoint as="offset" />
          </mxGeometry>
        </mxCell>
        <object label="知识科普视频列表" id="1vQmw3Du45QE4xVhplEK-18">
          <mxCell style="shape=table;startSize=30;container=1;collapsible=0;childLayout=tableLayout;fixedRows=1;rowLines=0;fontStyle=1;rounded=1;sketch=0;fontColor=#1D3557;strokeColor=#457B9D;fillColor=#A8DADC;" vertex="1" parent="1vQmw3Du45QE4xVhplEK-2">
            <mxGeometry x="25.5" y="284" width="164.5" height="150" as="geometry" />
          </mxCell>
        </object>
        <mxCell id="1vQmw3Du45QE4xVhplEK-19" value="" style="shape=tableRow;horizontal=0;startSize=0;swimlaneHead=0;swimlaneBody=0;top=0;left=0;bottom=0;right=0;collapsible=0;dropTarget=0;fillColor=none;points=[[0,0.5],[1,0.5]];portConstraint=eastwest;rounded=0;sketch=0;fontColor=#1D3557;strokeColor=#457B9D;" vertex="1" parent="1vQmw3Du45QE4xVhplEK-18">
          <mxGeometry y="30" width="164.5" height="30" as="geometry" />
        </mxCell>
        <mxCell id="1vQmw3Du45QE4xVhplEK-20" value="1" style="shape=partialRectangle;html=1;whiteSpace=wrap;connectable=0;fillColor=none;top=0;left=0;bottom=0;right=0;overflow=hidden;pointerEvents=1;rounded=0;sketch=0;fontColor=#1D3557;strokeColor=#457B9D;" vertex="1" parent="1vQmw3Du45QE4xVhplEK-19">
          <mxGeometry width="18" height="30" as="geometry">
            <mxRectangle width="18" height="30" as="alternateBounds" />
          </mxGeometry>
        </mxCell>
        <mxCell id="1vQmw3Du45QE4xVhplEK-21" value="&lt;span style=&quot;font-size: 10px ; text-align: center&quot;&gt;隐患排查相关政策&lt;/span&gt;" style="shape=partialRectangle;html=1;whiteSpace=wrap;connectable=0;fillColor=none;top=0;left=0;bottom=0;right=0;align=left;spacingLeft=6;overflow=hidden;rounded=0;sketch=0;fontColor=#1D3557;strokeColor=#457B9D;" vertex="1" parent="1vQmw3Du45QE4xVhplEK-19">
          <mxGeometry x="18" width="147" height="30" as="geometry">
            <mxRectangle width="147" height="30" as="alternateBounds" />
          </mxGeometry>
        </mxCell>
        <mxCell id="1vQmw3Du45QE4xVhplEK-22" value="" style="shape=tableRow;horizontal=0;startSize=0;swimlaneHead=0;swimlaneBody=0;top=0;left=0;bottom=0;right=0;collapsible=0;dropTarget=0;fillColor=none;points=[[0,0.5],[1,0.5]];portConstraint=eastwest;rounded=0;sketch=0;fontColor=#1D3557;strokeColor=#457B9D;" vertex="1" parent="1vQmw3Du45QE4xVhplEK-18">
          <mxGeometry y="60" width="164.5" height="30" as="geometry" />
        </mxCell>
        <mxCell id="1vQmw3Du45QE4xVhplEK-23" value="2" style="shape=partialRectangle;html=1;whiteSpace=wrap;connectable=0;fillColor=none;top=0;left=0;bottom=0;right=0;overflow=hidden;rounded=0;sketch=0;fontColor=#1D3557;strokeColor=#457B9D;" vertex="1" parent="1vQmw3Du45QE4xVhplEK-22">
          <mxGeometry width="18" height="30" as="geometry">
            <mxRectangle width="18" height="30" as="alternateBounds" />
          </mxGeometry>
        </mxCell>
        <mxCell id="1vQmw3Du45QE4xVhplEK-24" value="&lt;span style=&quot;font-size: 10px&quot;&gt;常见隐患点&lt;/span&gt;" style="shape=partialRectangle;html=1;whiteSpace=wrap;connectable=0;fillColor=none;top=0;left=0;bottom=0;right=0;align=left;spacingLeft=6;overflow=hidden;rounded=0;sketch=0;fontColor=#1D3557;strokeColor=#457B9D;" vertex="1" parent="1vQmw3Du45QE4xVhplEK-22">
          <mxGeometry x="18" width="147" height="30" as="geometry">
            <mxRectangle width="147" height="30" as="alternateBounds" />
          </mxGeometry>
        </mxCell>
        <mxCell id="1vQmw3Du45QE4xVhplEK-25" value="" style="shape=tableRow;horizontal=0;startSize=0;swimlaneHead=0;swimlaneBody=0;top=0;left=0;bottom=0;right=0;collapsible=0;dropTarget=0;fillColor=none;points=[[0,0.5],[1,0.5]];portConstraint=eastwest;rounded=0;sketch=0;fontColor=#1D3557;strokeColor=#457B9D;" vertex="1" parent="1vQmw3Du45QE4xVhplEK-18">
          <mxGeometry y="90" width="164.5" height="30" as="geometry" />
        </mxCell>
        <mxCell id="1vQmw3Du45QE4xVhplEK-26" value="3" style="shape=partialRectangle;html=1;whiteSpace=wrap;connectable=0;fillColor=none;top=0;left=0;bottom=0;right=0;overflow=hidden;rounded=0;sketch=0;fontColor=#1D3557;strokeColor=#457B9D;" vertex="1" parent="1vQmw3Du45QE4xVhplEK-25">
          <mxGeometry width="18" height="30" as="geometry">
            <mxRectangle width="18" height="30" as="alternateBounds" />
          </mxGeometry>
        </mxCell>
        <mxCell id="1vQmw3Du45QE4xVhplEK-27" value="&lt;span style=&quot;font-size: 10px&quot;&gt;事故案例&lt;/span&gt;" style="shape=partialRectangle;html=1;whiteSpace=wrap;connectable=0;fillColor=none;top=0;left=0;bottom=0;right=0;align=left;spacingLeft=6;overflow=hidden;rounded=0;sketch=0;fontColor=#1D3557;strokeColor=#457B9D;" vertex="1" parent="1vQmw3Du45QE4xVhplEK-25">
          <mxGeometry x="18" width="147" height="30" as="geometry">
            <mxRectangle width="147" height="30" as="alternateBounds" />
          </mxGeometry>
        </mxCell>
        <mxCell id="1vQmw3Du45QE4xVhplEK-28" value="" style="shape=tableRow;horizontal=0;startSize=0;swimlaneHead=0;swimlaneBody=0;top=0;left=0;bottom=0;right=0;collapsible=0;dropTarget=0;fillColor=none;points=[[0,0.5],[1,0.5]];portConstraint=eastwest;rounded=0;sketch=0;fontColor=#1D3557;strokeColor=#457B9D;" vertex="1" parent="1vQmw3Du45QE4xVhplEK-18">
          <mxGeometry y="120" width="164.5" height="30" as="geometry" />
        </mxCell>
        <mxCell id="1vQmw3Du45QE4xVhplEK-29" value="4" style="shape=partialRectangle;html=1;whiteSpace=wrap;connectable=0;fillColor=none;top=0;left=0;bottom=0;right=0;overflow=hidden;rounded=0;sketch=0;fontColor=#1D3557;strokeColor=#457B9D;" vertex="1" parent="1vQmw3Du45QE4xVhplEK-28">
          <mxGeometry width="18" height="30" as="geometry">
            <mxRectangle width="18" height="30" as="alternateBounds" />
          </mxGeometry>
        </mxCell>
        <mxCell id="1vQmw3Du45QE4xVhplEK-30" value="&lt;span style=&quot;font-size: 10px&quot;&gt;隐患排查治理流程&lt;/span&gt;" style="shape=partialRectangle;html=1;whiteSpace=wrap;connectable=0;fillColor=none;top=0;left=0;bottom=0;right=0;align=left;spacingLeft=6;overflow=hidden;rounded=0;sketch=0;fontColor=#1D3557;strokeColor=#457B9D;" vertex="1" parent="1vQmw3Du45QE4xVhplEK-28">
          <mxGeometry x="18" width="147" height="30" as="geometry">
            <mxRectangle width="147" height="30" as="alternateBounds" />
          </mxGeometry>
        </mxCell>
        <mxCell id="1vQmw3Du45QE4xVhplEK-31" value="体验结束页面列表" style="shape=table;startSize=30;container=1;collapsible=0;childLayout=tableLayout;fixedRows=1;rowLines=0;fontStyle=1;rounded=1;sketch=0;fontColor=#1D3557;strokeColor=#457B9D;fillColor=#A8DADC;" vertex="1" parent="1vQmw3Du45QE4xVhplEK-2">
          <mxGeometry x="394" y="284" width="146" height="90" as="geometry" />
        </mxCell>
        <mxCell id="1vQmw3Du45QE4xVhplEK-32" value="" style="shape=tableRow;horizontal=0;startSize=0;swimlaneHead=0;swimlaneBody=0;top=0;left=0;bottom=0;right=0;collapsible=0;dropTarget=0;fillColor=none;points=[[0,0.5],[1,0.5]];portConstraint=eastwest;rounded=1;sketch=0;fontColor=#1D3557;strokeColor=#457B9D;" vertex="1" parent="1vQmw3Du45QE4xVhplEK-31">
          <mxGeometry y="30" width="146" height="30" as="geometry" />
        </mxCell>
        <mxCell id="1vQmw3Du45QE4xVhplEK-33" value="1" style="shape=partialRectangle;html=1;whiteSpace=wrap;connectable=0;fillColor=none;top=0;left=0;bottom=0;right=0;overflow=hidden;pointerEvents=1;rounded=1;sketch=0;fontColor=#1D3557;strokeColor=#457B9D;" vertex="1" parent="1vQmw3Du45QE4xVhplEK-32">
          <mxGeometry width="32" height="30" as="geometry">
            <mxRectangle width="32" height="30" as="alternateBounds" />
          </mxGeometry>
        </mxCell>
        <mxCell id="1vQmw3Du45QE4xVhplEK-34" value="综合评价" style="shape=partialRectangle;html=1;whiteSpace=wrap;connectable=0;fillColor=none;top=0;left=0;bottom=0;right=0;align=left;spacingLeft=6;overflow=hidden;rounded=1;sketch=0;fontColor=#1D3557;strokeColor=#457B9D;" vertex="1" parent="1vQmw3Du45QE4xVhplEK-32">
          <mxGeometry x="32" width="114" height="30" as="geometry">
            <mxRectangle width="114" height="30" as="alternateBounds" />
          </mxGeometry>
        </mxCell>
        <mxCell id="1vQmw3Du45QE4xVhplEK-35" value="" style="shape=tableRow;horizontal=0;startSize=0;swimlaneHead=0;swimlaneBody=0;top=0;left=0;bottom=0;right=0;collapsible=0;dropTarget=0;fillColor=none;points=[[0,0.5],[1,0.5]];portConstraint=eastwest;rounded=1;sketch=0;fontColor=#1D3557;strokeColor=#457B9D;" vertex="1" parent="1vQmw3Du45QE4xVhplEK-31">
          <mxGeometry y="60" width="146" height="30" as="geometry" />
        </mxCell>
        <mxCell id="1vQmw3Du45QE4xVhplEK-36" value="2" style="shape=partialRectangle;html=1;whiteSpace=wrap;connectable=0;fillColor=none;top=0;left=0;bottom=0;right=0;overflow=hidden;rounded=1;sketch=0;fontColor=#1D3557;strokeColor=#457B9D;" vertex="1" parent="1vQmw3Du45QE4xVhplEK-35">
          <mxGeometry width="32" height="30" as="geometry">
            <mxRectangle width="32" height="30" as="alternateBounds" />
          </mxGeometry>
        </mxCell>
        <mxCell id="1vQmw3Du45QE4xVhplEK-37" value="隐患排查详情" style="shape=partialRectangle;html=1;whiteSpace=wrap;connectable=0;fillColor=none;top=0;left=0;bottom=0;right=0;align=left;spacingLeft=6;overflow=hidden;rounded=1;sketch=0;fontColor=#1D3557;strokeColor=#457B9D;" vertex="1" parent="1vQmw3Du45QE4xVhplEK-35">
          <mxGeometry x="32" width="114" height="30" as="geometry">
            <mxRectangle width="114" height="30" as="alternateBounds" />
          </mxGeometry>
        </mxCell>
        <mxCell id="1vQmw3Du45QE4xVhplEK-38" value="触控一体机" style="rounded=1;whiteSpace=wrap;html=1;fontSize=13;fillColor=#A8DADC;strokeColor=#457B9D;fontColor=#1D3557;" vertex="1" parent="1vQmw3Du45QE4xVhplEK-1">
          <mxGeometry x="41" y="20" width="120" height="580" as="geometry" />
        </mxCell>
        <mxCell id="1vQmw3Du45QE4xVhplEK-39" value="" style="endArrow=classic;html=1;rounded=1;fontSize=13;labelBackgroundColor=#F1FAEE;strokeColor=#457B9D;fontColor=#1D3557;exitX=1;exitY=0.352;exitDx=0;exitDy=0;exitPerimeter=0;" edge="1" parent="1vQmw3Du45QE4xVhplEK-1">
          <mxGeometry width="50" height="50" relative="1" as="geometry">
            <mxPoint x="161" y="224.15999999999997" as="sourcePoint" />
            <mxPoint x="310" y="224" as="targetPoint" />
          </mxGeometry>
        </mxCell>
        <mxCell id="1vQmw3Du45QE4xVhplEK-40" value="&lt;span style=&quot;font-size: 10px ; background-color: rgb(248 , 249 , 250)&quot;&gt;显示&lt;/span&gt;" style="edgeLabel;html=1;align=center;verticalAlign=middle;resizable=0;points=[];fontColor=#1D3557;labelBackgroundColor=#F1FAEE;" vertex="1" connectable="0" parent="1vQmw3Du45QE4xVhplEK-39">
          <mxGeometry x="0.1937" y="-1" relative="1" as="geometry">
            <mxPoint x="-6" as="offset" />
          </mxGeometry>
        </mxCell>
        <mxCell id="1vQmw3Du45QE4xVhplEK-41" value="UE4场景" style="swimlane;rounded=1;fillColor=#A8DADC;strokeColor=#457B9D;fontColor=#1D3557;" vertex="1" parent="1vQmw3Du45QE4xVhplEK-1">
          <mxGeometry x="318.5" y="529" width="423" height="67" as="geometry">
            <mxRectangle x="317" y="470" width="80" height="23" as="alternateBounds" />
          </mxGeometry>
        </mxCell>
        <mxCell id="1vQmw3Du45QE4xVhplEK-42" value="售票厅场景" style="text;html=1;align=center;verticalAlign=middle;resizable=0;points=[];autosize=1;strokeColor=none;fillColor=none;fontColor=#1D3557;" vertex="1" parent="1vQmw3Du45QE4xVhplEK-41">
          <mxGeometry x="24.5" y="34" width="80" height="20" as="geometry" />
        </mxCell>
        <mxCell id="1vQmw3Du45QE4xVhplEK-43" value="候车厅场景" style="text;html=1;align=center;verticalAlign=middle;resizable=0;points=[];autosize=1;strokeColor=none;fillColor=none;fontColor=#1D3557;" vertex="1" parent="1vQmw3Du45QE4xVhplEK-41">
          <mxGeometry x="104.5" y="34" width="80" height="20" as="geometry" />
        </mxCell>
        <mxCell id="1vQmw3Du45QE4xVhplEK-44" value="调度室场景" style="text;html=1;align=center;verticalAlign=middle;resizable=0;points=[];autosize=1;strokeColor=none;fillColor=none;fontColor=#1D3557;" vertex="1" parent="1vQmw3Du45QE4xVhplEK-41">
          <mxGeometry x="203" y="34" width="80" height="20" as="geometry" />
        </mxCell>
        <mxCell id="1vQmw3Du45QE4xVhplEK-45" value="站台场景" style="text;html=1;align=center;verticalAlign=middle;resizable=0;points=[];autosize=1;strokeColor=none;fillColor=none;fontColor=#1D3557;" vertex="1" parent="1vQmw3Du45QE4xVhplEK-41">
          <mxGeometry x="293" y="34" width="60" height="20" as="geometry" />
        </mxCell>
        <mxCell id="1vQmw3Du45QE4xVhplEK-46" value="" style="endArrow=classic;html=1;rounded=1;fontSize=13;entryX=0;entryY=0.5;entryDx=0;entryDy=0;labelBackgroundColor=#F1FAEE;strokeColor=#457B9D;fontColor=#1D3557;" edge="1" parent="1vQmw3Du45QE4xVhplEK-1" target="1vQmw3Du45QE4xVhplEK-41">
          <mxGeometry width="50" height="50" relative="1" as="geometry">
            <mxPoint x="160" y="563" as="sourcePoint" />
            <mxPoint x="351" y="587" as="targetPoint" />
          </mxGeometry>
        </mxCell>
        <mxCell id="1vQmw3Du45QE4xVhplEK-47" value="&lt;span style=&quot;font-size: 10px ; background-color: rgb(248 , 249 , 250)&quot;&gt;显示&lt;/span&gt;" style="edgeLabel;html=1;align=center;verticalAlign=middle;resizable=0;points=[];fontColor=#1D3557;labelBackgroundColor=#F1FAEE;" vertex="1" connectable="0" parent="1vQmw3Du45QE4xVhplEK-46">
          <mxGeometry x="0.1667" y="1" relative="1" as="geometry">
            <mxPoint as="offset" />
          </mxGeometry>
        </mxCell>
        <mxCell id="1vQmw3Du45QE4xVhplEK-48" value="" style="endArrow=classic;html=1;rounded=1;sketch=0;fontColor=#1D3557;strokeColor=#457B9D;fillColor=#A8DADC;curved=0;exitX=0.5;exitY=1;exitDx=0;exitDy=0;entryX=0.47;entryY=0.019;entryDx=0;entryDy=0;entryPerimeter=0;" edge="1" parent="1vQmw3Du45QE4xVhplEK-1" source="1vQmw3Du45QE4xVhplEK-6" target="1vQmw3Du45QE4xVhplEK-41">
          <mxGeometry width="50" height="50" relative="1" as="geometry">
            <mxPoint x="670" y="497" as="sourcePoint" />
            <mxPoint x="720" y="447" as="targetPoint" />
          </mxGeometry>
        </mxCell>
        <mxCell id="1vQmw3Du45QE4xVhplEK-49" value="启动" style="edgeLabel;html=1;align=center;verticalAlign=middle;resizable=0;points=[];fontColor=#1D3557;" vertex="1" connectable="0" parent="1vQmw3Du45QE4xVhplEK-48">
          <mxGeometry x="0.4709" y="1" relative="1" as="geometry">
            <mxPoint y="-177" as="offset" />
          </mxGeometry>
        </mxCell>
        <mxCell id="1vQmw3Du45QE4xVhplEK-50" value="" style="endArrow=classic;startArrow=classic;html=1;rounded=1;sketch=0;fontColor=#1D3557;strokeColor=#457B9D;fillColor=#A8DADC;curved=0;strokeWidth=2;entryX=0.25;entryY=1;entryDx=0;entryDy=0;" edge="1" parent="1vQmw3Du45QE4xVhplEK-1">
          <mxGeometry width="50" height="50" relative="1" as="geometry">
            <mxPoint x="436" y="533" as="sourcePoint" />
            <mxPoint x="436.375" y="459" as="targetPoint" />
          </mxGeometry>
        </mxCell>
        <mxCell id="1vQmw3Du45QE4xVhplEK-51" value="进程通信" style="edgeLabel;html=1;align=center;verticalAlign=middle;resizable=0;points=[];fontColor=#1D3557;" vertex="1" connectable="0" parent="1vQmw3Du45QE4xVhplEK-50">
          <mxGeometry x="-0.4714" y="-2" relative="1" as="geometry">
            <mxPoint y="-21" as="offset" />
          </mxGeometry>
        </mxCell>
        <mxCell id="1vQmw3Du45QE4xVhplEK-52" value="系统列表" style="shape=table;startSize=30;container=1;collapsible=0;childLayout=tableLayout;fixedRows=1;rowLines=0;fontStyle=1;rounded=1;sketch=0;fontColor=#1D3557;strokeColor=#457B9D;fillColor=#A8DADC;" vertex="1" parent="1vQmw3Du45QE4xVhplEK-1">
          <mxGeometry x="980" y="46" width="180" height="150" as="geometry" />
        </mxCell>
        <mxCell id="1vQmw3Du45QE4xVhplEK-53" value="" style="shape=tableRow;horizontal=0;startSize=0;swimlaneHead=0;swimlaneBody=0;top=0;left=0;bottom=0;right=0;collapsible=0;dropTarget=0;fillColor=none;points=[[0,0.5],[1,0.5]];portConstraint=eastwest;rounded=1;sketch=0;fontColor=#1D3557;strokeColor=#457B9D;" vertex="1" parent="1vQmw3Du45QE4xVhplEK-52">
          <mxGeometry y="30" width="180" height="30" as="geometry" />
        </mxCell>
        <mxCell id="1vQmw3Du45QE4xVhplEK-54" value="1" style="shape=partialRectangle;html=1;whiteSpace=wrap;connectable=0;fillColor=none;top=0;left=0;bottom=0;right=0;overflow=hidden;pointerEvents=1;rounded=1;sketch=0;fontColor=#1D3557;strokeColor=#457B9D;" vertex="1" parent="1vQmw3Du45QE4xVhplEK-53">
          <mxGeometry width="40" height="30" as="geometry">
            <mxRectangle width="40" height="30" as="alternateBounds" />
          </mxGeometry>
        </mxCell>
        <mxCell id="1vQmw3Du45QE4xVhplEK-55" value="&lt;span style=&quot;text-align: center&quot;&gt;车辆安全事故体验&lt;/span&gt;" style="shape=partialRectangle;html=1;whiteSpace=wrap;connectable=0;fillColor=none;top=0;left=0;bottom=0;right=0;align=left;spacingLeft=6;overflow=hidden;rounded=1;sketch=0;fontColor=#1D3557;strokeColor=#457B9D;" vertex="1" parent="1vQmw3Du45QE4xVhplEK-53">
          <mxGeometry x="40" width="140" height="30" as="geometry">
            <mxRectangle width="140" height="30" as="alternateBounds" />
          </mxGeometry>
        </mxCell>
        <mxCell id="1vQmw3Du45QE4xVhplEK-56" value="" style="shape=tableRow;horizontal=0;startSize=0;swimlaneHead=0;swimlaneBody=0;top=0;left=0;bottom=0;right=0;collapsible=0;dropTarget=0;fillColor=none;points=[[0,0.5],[1,0.5]];portConstraint=eastwest;rounded=1;sketch=0;fontColor=#1D3557;strokeColor=#457B9D;" vertex="1" parent="1vQmw3Du45QE4xVhplEK-52">
          <mxGeometry y="60" width="180" height="30" as="geometry" />
        </mxCell>
        <mxCell id="1vQmw3Du45QE4xVhplEK-57" value="2" style="shape=partialRectangle;html=1;whiteSpace=wrap;connectable=0;fillColor=none;top=0;left=0;bottom=0;right=0;overflow=hidden;rounded=1;sketch=0;fontColor=#1D3557;strokeColor=#457B9D;" vertex="1" parent="1vQmw3Du45QE4xVhplEK-56">
          <mxGeometry width="40" height="30" as="geometry">
            <mxRectangle width="40" height="30" as="alternateBounds" />
          </mxGeometry>
        </mxCell>
        <mxCell id="1vQmw3Du45QE4xVhplEK-58" value="&lt;span style=&quot;text-align: center&quot;&gt;车辆安全隐患排查&lt;/span&gt;" style="shape=partialRectangle;html=1;whiteSpace=wrap;connectable=0;fillColor=none;top=0;left=0;bottom=0;right=0;align=left;spacingLeft=6;overflow=hidden;rounded=1;sketch=0;fontColor=#1D3557;strokeColor=#457B9D;" vertex="1" parent="1vQmw3Du45QE4xVhplEK-56">
          <mxGeometry x="40" width="140" height="30" as="geometry">
            <mxRectangle width="140" height="30" as="alternateBounds" />
          </mxGeometry>
        </mxCell>
        <mxCell id="1vQmw3Du45QE4xVhplEK-59" value="" style="shape=tableRow;horizontal=0;startSize=0;swimlaneHead=0;swimlaneBody=0;top=0;left=0;bottom=0;right=0;collapsible=0;dropTarget=0;fillColor=none;points=[[0,0.5],[1,0.5]];portConstraint=eastwest;rounded=1;sketch=0;fontColor=#1D3557;strokeColor=#457B9D;" vertex="1" parent="1vQmw3Du45QE4xVhplEK-52">
          <mxGeometry y="90" width="180" height="30" as="geometry" />
        </mxCell>
        <mxCell id="1vQmw3Du45QE4xVhplEK-60" value="3" style="shape=partialRectangle;html=1;whiteSpace=wrap;connectable=0;fillColor=none;top=0;left=0;bottom=0;right=0;overflow=hidden;rounded=1;sketch=0;fontColor=#1D3557;strokeColor=#457B9D;" vertex="1" parent="1vQmw3Du45QE4xVhplEK-59">
          <mxGeometry width="40" height="30" as="geometry">
            <mxRectangle width="40" height="30" as="alternateBounds" />
          </mxGeometry>
        </mxCell>
        <mxCell id="1vQmw3Du45QE4xVhplEK-61" value="&lt;span style=&quot;text-align: center&quot;&gt;车务安全事故体验&lt;/span&gt;" style="shape=partialRectangle;html=1;whiteSpace=wrap;connectable=0;fillColor=none;top=0;left=0;bottom=0;right=0;align=left;spacingLeft=6;overflow=hidden;rounded=1;sketch=0;fontColor=#1D3557;strokeColor=#457B9D;" vertex="1" parent="1vQmw3Du45QE4xVhplEK-59">
          <mxGeometry x="40" width="140" height="30" as="geometry">
            <mxRectangle width="140" height="30" as="alternateBounds" />
          </mxGeometry>
        </mxCell>
        <mxCell id="1vQmw3Du45QE4xVhplEK-62" value="" style="shape=tableRow;horizontal=0;startSize=0;swimlaneHead=0;swimlaneBody=0;top=0;left=0;bottom=0;right=0;collapsible=0;dropTarget=0;fillColor=none;points=[[0,0.5],[1,0.5]];portConstraint=eastwest;rounded=1;sketch=0;fontColor=#1D3557;strokeColor=#457B9D;" vertex="1" parent="1vQmw3Du45QE4xVhplEK-52">
          <mxGeometry y="120" width="180" height="30" as="geometry" />
        </mxCell>
        <mxCell id="1vQmw3Du45QE4xVhplEK-63" value="4" style="shape=partialRectangle;html=1;whiteSpace=wrap;connectable=0;fillColor=none;top=0;left=0;bottom=0;right=0;overflow=hidden;rounded=1;sketch=0;fontColor=#1D3557;strokeColor=#457B9D;" vertex="1" parent="1vQmw3Du45QE4xVhplEK-62">
          <mxGeometry width="40" height="30" as="geometry">
            <mxRectangle width="40" height="30" as="alternateBounds" />
          </mxGeometry>
        </mxCell>
        <mxCell id="1vQmw3Du45QE4xVhplEK-64" value="&lt;span style=&quot;text-align: center&quot;&gt;车务安全隐患排查&lt;/span&gt;" style="shape=partialRectangle;html=1;whiteSpace=wrap;connectable=0;fillColor=none;top=0;left=0;bottom=0;right=0;align=left;spacingLeft=6;overflow=hidden;rounded=1;sketch=0;fontColor=#1D3557;strokeColor=#457B9D;" vertex="1" parent="1vQmw3Du45QE4xVhplEK-62">
          <mxGeometry x="40" width="140" height="30" as="geometry">
            <mxRectangle width="140" height="30" as="alternateBounds" />
          </mxGeometry>
        </mxCell>
        <mxCell id="1vQmw3Du45QE4xVhplEK-65" value="" style="edgeStyle=elbowEdgeStyle;elbow=horizontal;endArrow=classic;html=1;rounded=1;sketch=0;fontColor=#1D3557;strokeColor=#457B9D;strokeWidth=1;fillColor=#A8DADC;curved=0;exitX=1;exitY=0.5;exitDx=0;exitDy=0;entryX=-0.006;entryY=0.127;entryDx=0;entryDy=0;entryPerimeter=0;" edge="1" parent="1vQmw3Du45QE4xVhplEK-1" source="1vQmw3Du45QE4xVhplEK-14" target="1vQmw3Du45QE4xVhplEK-52">
          <mxGeometry width="50" height="50" relative="1" as="geometry">
            <mxPoint x="671.5" y="91" as="sourcePoint" />
            <mxPoint x="920" y="224" as="targetPoint" />
          </mxGeometry>
        </mxCell>
        <mxCell id="1vQmw3Du45QE4xVhplEK-66" value="" style="edgeStyle=segmentEdgeStyle;endArrow=classic;html=1;rounded=1;sketch=0;fontColor=#1D3557;strokeColor=#457B9D;strokeWidth=1;fillColor=#A8DADC;curved=0;" edge="1" parent="1vQmw3Du45QE4xVhplEK-1" target="1vQmw3Du45QE4xVhplEK-35">
          <mxGeometry width="50" height="50" relative="1" as="geometry">
            <mxPoint x="740" y="574" as="sourcePoint" />
            <mxPoint x="840" y="509" as="targetPoint" />
          </mxGeometry>
        </mxCell>
        <mxCell id="1vQmw3Du45QE4xVhplEK-67" value="体验结束" style="edgeLabel;html=1;align=center;verticalAlign=middle;resizable=0;points=[];fontColor=#1D3557;" vertex="1" connectable="0" parent="1vQmw3Du45QE4xVhplEK-66">
          <mxGeometry x="0.0404" y="2" relative="1" as="geometry">
            <mxPoint as="offset" />
          </mxGeometry>
        </mxCell>
      </root>
    </mxGraphModel>
  </diagram>
</mxfile>
